<!--
  - Copyright (c) 2025.
  -
  - Unless required by applicable law or agreed to in writing, software
  - distributed under the License is distributed on an "AS IS" BASIS,
  - WITHOUT WARRANTIES OR CONDITIONS OF ANY KIND, either express or implied.
  - See the License for the specific language governing permissions and
  - limitations under the License.
  -
  -->

<svg xmlns="http://www.w3.org/2000/svg" width="4" height="19" viewBox="0 0 4 19">
	<g transform="translate(-300 -755)">
		<rect width="2" height="1" transform="translate(300 755)" />
		<rect width="2" height="1" transform="translate(300 763)" />
		<rect width="2" height="1" transform="translate(300 757)" />
		<rect width="2" height="1" transform="translate(300 759)" />
		<rect width="2" height="1" transform="translate(300 761)" />
		<rect width="2" height="1" transform="translate(300 765)" />
		<rect width="2" height="1" transform="translate(300 773)" />
		<rect width="2" height="1" transform="translate(300 767)" />
		<rect width="2" height="1" transform="translate(300 769)" />
		<rect width="2" height="1" transform="translate(300 771)" />
		<rect width="2" height="1" transform="translate(302 755)" />
		<rect width="2" height="1" transform="translate(302 763)" />
		<rect width="2" height="1" transform="translate(302 757)" />
		<rect width="2" height="1" transform="translate(302 759)" />
		<rect width="2" height="1" transform="translate(302 761)" />
		<rect width="2" height="1" transform="translate(302 765)" />
		<rect width="2" height="1" transform="translate(302 773)" />
		<rect width="2" height="1" transform="translate(302 767)" />
		<rect width="2" height="1" transform="translate(302 769)" />
		<rect width="2" height="1" transform="translate(302 771)" />
	</g>
</svg>
