<svg width="1024" height="1024" viewBox="0 0 1024 1024" fill="none" xmlns="http://www.w3.org/2000/svg">
  <defs>
    <linearGradient id="bgGradient" x1="512" y1="0" x2="512" y2="1024" gradientUnits="userSpaceOnUse">
      <stop offset="0" stop-color="#242f45"/>
      <stop offset="1" stop-color="#141c2b"/>
    </linearGradient>
  </defs>

  <!-- Dark background with rounded corners + subtle border for dock contrast -->
  <rect x="5" y="5" width="1014" height="1014" rx="217" fill="url(#bgGradient)" stroke="rgba(255,255,255,0.18)" stroke-width="10"/>

  <!-- Left blue brace { -->
  <path d="M 300 260 C 210 260 210 300 210 340 C 210 390 210 460 150 520 C 210 580 210 650 210 700 C 210 740 210 780 300 780"
        fill="none" stroke="#4CC9F0" stroke-width="44" stroke-linecap="round" stroke-linejoin="round"/>

  <!-- Right green brace } -->
  <path d="M 724 260 C 814 260 814 300 814 340 C 814 390 814 460 874 520 C 814 580 814 650 814 700 C 814 740 814 780 724 780"
        fill="none" stroke="#22C55E" stroke-width="44" stroke-linecap="round" stroke-linejoin="round"/>

  <!-- Orange dot -->
  <circle cx="512" cy="380" r="48" fill="#FF9500"/>

  <!-- Purple dot -->
  <circle cx="512" cy="512" r="48" fill="#C026D3"/>

  <!-- Red dot -->
  <circle cx="512" cy="644" r="48" fill="#EF4444"/>
</svg>
